<svg xmlns="http://www.w3.org/2000/svg" xmlns:xlink="http://www.w3.org/1999/xlink"><defs><symbol viewBox="0 0 719 277" id="logo">
    <!-- Generator: Sketch 54.1 (76490) - https://sketchapp.com -->
    <title>logo</title>
    <desc>Created with Sketch.</desc>
    <g id="logo_logo" stroke="none" stroke-width="1" fill="none" fill-rule="evenodd">
        <g fill="#FF5800">
            <path d="M374.519433,277.086331 C371.295233,277.086331 368.220727,275.735956 366.044392,273.358373 C363.868057,270.980789 362.774131,267.806831 363.038976,264.586706 C366.931047,217.866039 380.553294,54.0089976 384.15749,10.6700393 C384.652635,4.69145593 389.638631,0.0863309282 395.626432,0.0863309282 L476.91083,0.0863309282 C496.233003,0.0863309282 514.668521,8.20012259 527.749563,22.4425393 C540.84212,36.6964976 547.371126,55.7864143 545.759026,75.0840809 C544.50389,90.2382893 543.23724,105.542539 542.143315,118.688498 C540.231825,141.633331 525.999282,161.715831 505.007434,171.064581 L504.995919,171.064581 C502.266864,172.287998 500.908093,175.381164 501.852324,178.220414 C506.826804,193.201498 521.761762,238.098581 529.672568,261.897498 C530.847098,265.417706 530.259833,269.284164 528.095013,272.296539 C525.930192,275.297373 522.452662,277.086331 518.756346,277.086331 L485.316781,277.086331 C480.43442,277.086331 476.070234,273.981623 474.458134,269.353414 C468.481848,252.271748 453.972946,210.721748 444.830034,184.510623 C443.920349,181.913748 441.364019,180.263289 438.623448,180.528748 C435.882878,180.782664 433.671998,182.883248 433.268973,185.607081 C429.492052,210.825623 423.734551,249.328623 421.051556,267.252831 C420.199446,272.908248 415.363145,277.086331 409.663219,277.086331 L374.519433,277.086331 Z M445.550933,121.086331 C452.008909,121.086331 460.026504,121.086331 467.258513,121.086331 C478.152737,121.086331 487.22163,112.804695 488.122743,102.048876 C488.688827,95.27924 489.335779,87.6046946 489.924969,80.5716037 C490.421736,74.7870582 488.434666,69.0597855 484.47208,64.78724 C480.509494,60.5146946 474.917973,58.0863309 469.060739,58.0863309 C461.967363,58.0863309 454.481194,58.0863309 448.612407,58.0863309 C442.570329,58.0863309 437.556444,62.7025127 437.094335,68.6703309 C436.250986,79.7468764 434.922422,97.0890582 434.032862,108.76124 C433.790255,111.945604 434.899317,115.084149 437.082783,117.420876 C439.266248,119.757604 442.339275,121.086331 445.550933,121.086331 Z" id="logo_Shape" />
            <path d="M558.554028,277.086331 C555.320144,277.086331 552.236406,275.735956 550.053535,273.358373 C547.870663,270.980789 546.773453,267.806831 547.039093,264.586706 C550.942852,217.866039 564.606009,54.0089976 568.221028,10.6700393 C568.71766,4.69145593 573.71863,0.0863309282 579.724413,0.0863309282 L649.703335,0.0863309282 C669.083535,0.0863309282 687.574417,8.20012259 700.706292,22.4425393 C713.826618,36.6964976 720.375232,55.7864143 718.75829,75.0840809 C717.637981,88.5301226 716.483023,102.403206 715.397362,115.479914 C712.40602,151.374498 682.377105,178.982164 646.342406,178.982164 L617.44535,178.982164 C614.326963,178.982164 611.728307,181.371289 611.474216,184.475998 C610.157563,200.230373 606.357751,245.716081 604.625313,266.502623 C604.128681,272.481206 599.127712,277.086331 593.121929,277.086331 L558.554028,277.086331 Z M629.4995,121.086331 C634.341542,121.086331 640.011677,121.086331 645.359776,121.086331 C656.20549,121.086331 665.234001,112.804695 666.131102,102.048876 C666.694665,95.27924 667.338737,87.6046946 667.925303,80.5716037 C668.419858,74.7870582 666.441637,69.0597855 662.496695,64.78724 C658.551753,60.5146946 652.98513,58.0863309 647.153977,58.0863309 C642.058906,58.0863309 636.883327,58.0863309 632.547341,58.0863309 C626.532167,58.0863309 621.540608,62.7025127 621.080557,68.6703309 C620.240963,79.7468764 618.918315,97.0890582 618.032716,108.76124 C617.791189,111.945604 618.895312,115.084149 621.069056,117.420876 C623.242799,119.757604 626.302142,121.086331 629.4995,121.086331 Z" id="logo_Shape" />
            <path d="M158.475734,0.0577083333 C161.692898,0.0577083333 164.77169,1.40808333 166.951059,3.78566667 C169.14196,6.15170833 170.225879,9.33720833 169.960665,12.5573333 C169.095836,22.887125 167.896606,37.3834583 167.077901,47.1477083 C166.582066,53.1378333 161.589119,57.7314167 155.581439,57.7314167 C138.019641,57.7314167 103.092074,57.719875 85.5302764,57.7083333 C79.5341275,57.7083333 74.5296494,62.3134583 74.033814,68.2920417 C73.2151091,78.0678333 72.0043483,92.58725 71.1510501,102.928583 C70.8858359,106.148708 71.9697551,109.322667 74.1491246,111.70025 C76.3284941,114.077833 79.4072859,115.428208 82.6244504,115.428208 C93.0254625,115.43975 107.727558,115.451292 118.117039,115.462833 C121.345735,115.462833 124.424527,116.813208 126.603896,119.190792 C128.783266,121.568375 129.867185,124.742333 129.601971,127.962458 C128.748672,138.280708 127.537912,152.777042 126.719207,162.541292 C126.223371,168.519875 121.230424,173.125 115.234275,173.125 C104.187524,173.125 86.9947204,173.125 75.9364382,173.125 C69.9287583,173.125 64.9358112,177.741667 64.4399758,183.731792 C62.8256281,203.66425 59.3547804,246.46075 57.7404326,266.393208 C57.2561283,272.383333 52.2516502,277 46.2439702,277 C36.442573,277 21.890381,277 11.5354931,277 C8.30679759,277 5.22800577,275.649625 3.04863628,273.272042 C0.869266784,270.894458 -0.22618349,267.7205 0.0390307865,264.500375 C3.93652755,217.79125 17.5777662,53.9342083 21.1869866,10.5837083 C21.682822,4.605125 26.675769,0 32.6719179,0 C59.4700909,0.0115416667 129.728812,0.0461666667 158.475734,0.0577083333 Z" id="logo_Path" />
            <path d="M172.55108,277.086331 C169.302023,277.086331 166.195925,275.712873 164.012559,273.312206 C161.816196,270.911539 160.750506,267.702956 161.049419,264.471289 C165.45514,217.554414 180.829677,53.6742893 184.871504,10.5546226 C185.430342,4.62220593 190.420893,0.0863309282 196.373166,0.0863309282 L291.687499,0.0863309282 C311.194836,0.0863309282 329.805434,8.30399759 342.94462,22.7079976 C356.07081,37.1235393 362.516939,56.3981226 360.697467,75.7996643 C356.616652,119.265581 351.561119,173.199789 347.70124,214.299664 C344.361209,249.882623 314.469886,277.086331 278.691271,277.086331 L172.55108,277.086331 Z M242.557221,219.086331 C248.642911,219.086331 256.067973,219.086331 262.803843,219.086331 C273.622847,219.086331 282.660356,210.847474 283.661634,200.074474 C286.470414,170.150759 291.89292,112.201045 294.909757,80.0209024 C295.455909,74.1426166 293.505367,68.2990452 289.539266,63.9366166 C285.573165,59.5741881 279.942602,57.0863309 274.051966,57.0863309 C267.602175,57.0863309 260.905316,57.0863309 255.560832,57.0863309 C249.605178,57.0863309 244.611792,61.6339024 244.052637,67.5816166 C241.373893,96.1746166 233.961835,175.438902 231.049026,206.438759 C230.749943,209.678759 231.829243,212.895617 234.013849,215.302474 C236.211459,217.709331 239.306319,219.086331 242.557221,219.086331 Z" id="logo_Shape" />
        </g>
    </g>
</symbol></defs></svg>